# xmcd CD database file
#
# Track frame offsets:
#	150
#	23549
#	49953
#	61764
#	83208
#	115649
#	139754
#	162522
#	183028
#	209882
#	234975
#
# Disc length: 3381 seconds
#
# Revision: 0
# Processed by: cddbd v1.4PL0 Copyright (c) Steve Scherf et al.
# Submitted via: CDex 1.50Beta6
#
DISCID=8d0d330b
DTITLE=Ramsey Lewis and Nancy Wilson - Meant To Be
DYEAR=2002
DGENRE=Jazz
TTITLE0=Peel Me A Grape
TTITLE1=Truthfully
TTITLE2=Did I Ever Really Live
TTITLE3=Velvet Night
TTITLE4=A Moment Alone
TTITLE5=Moondance
TTITLE6=Meant To Be
TTITLE7=Piano In The Dark
TTITLE8=Time Peace
TTITLE9=First Time Love
TTITLE10=Tampissimo
EXTD=YEAR: 2002
EXTT0=
EXTT1=
EXTT2=
EXTT3=
EXTT4=
EXTT5=
EXTT6=
EXTT7=
EXTT8=
EXTT9=
EXTT10=
PLAYORDER=
